# xmcd CD database file
#
# Track frame offsets:
#	150
#	11109
#	23698
#	38481
#	54727
#	68190
#	83959
#	99526
#	122137
#	158306
#	176904
#	190988
#	199913
#	214720
#	230575
#	242364
#	256085
#	270880
#
# Disc length: 3826 seconds
#
# Revision: 0
# Processed by: cddbd v1.5.2PL0 Copyright (c) Steve Scherf et al.
# Submitted via: CDex 1.51
#
DISCID=e90ef012
DTITLE=Ella Fitzgerald -  Classic Album Collection - Ella in Berlin
DYEAR=1959
DGENRE=Jazz
TTITLE0=Gone With The Wind
TTITLE1=Misty
TTITLE2=The Lady Is A Tramp
TTITLE3=The Man I Love
TTITLE4=Summertime
TTITLE5=Too Darn Hot
TTITLE6=Lorelei
TTITLE7=Mack The Knife
TTITLE8=How High The Moon
TTITLE9=That Old Black Magic
TTITLE10=Our Love Is Here To Stay
TTITLE11=Lover Come Back To Me
TTITLE12=Angel Eyes
TTITLE13=I'm Beginning To See The Light
TTITLE14=My Heart Belongs To Daddy
TTITLE15=Just One Of Those Things
TTITLE16=I Can't Give You Anything But Love
TTITLE17=Sophisticated Lady
EXTD=YEAR: 1959
EXTT0=
EXTT1=
EXTT2=
EXTT3=
EXTT4=
EXTT5=
EXTT6=
EXTT7=
EXTT8=
EXTT9=
EXTT10=
EXTT11=
EXTT12=
EXTT13=
EXTT14=
EXTT15=
EXTT16=
EXTT17=
PLAYORDER=
